0
SECTION
2
HEADER
9
$INSUNITS
70
4
9
$ACADVER
1
AC1014
9
$HANDSEED
5
FFFF
0
ENDSEC
0
SECTION
2
TABLES
0
TABLE
2
VPORT
5
8
100
AcDbSymbolTable
0
ENDTAB
0
TABLE
2
LTYPE
5
5
100
AcDbSymbolTable
0
LTYPE
5
14
100
AcDbSymbolTableRecord
100
AcDbLinetypeTableRecord
2
BYBLOCK
70
0
0
LTYPE
5
15
100
AcDbSymbolTableRecord
100
AcDbLinetypeTableRecord
2
BYLAYER
70
0
0
LTYPE
5
16
100
AcDbSymbolTableRecord
100
AcDbLinetypeTableRecord
2
DASHED
70
0
3
Dashed __ __ __ __ __ __ __ __ __ __ __ __ __ _
72
65
73
2
40
0.75
49
0.5
74
0
49
-0.25
74
0
0
ENDTAB
0
TABLE
2
LAYER
5
2
100
AcDbSymbolTable
70
2
0
LAYER
5
50
100
AcDbSymbolTableRecord
100
AcDbLayerTableRecord
2
0
70
0
62
7
6
CONTINUOUS
0
ENDTAB
0
TABLE
2
STYLE
5
3
100
AcDbSymbolTable
70
1
0
STYLE
5
11
100
AcDbSymbolTableRecord
100
AcDbTextStyleTableRecord
2
STANDARD
70
0
0
ENDTAB
0
TABLE
2
VIEW
5
6
100
AcDbSymbolTable
70
0
0
ENDTAB
0
TABLE
2
UCS
5
7
100
AcDbSymbolTable
70
0
0
ENDTAB
0
TABLE
2
APPID
5
9
100
AcDbSymbolTable
70
2
0
APPID
5
12
100
AcDbSymbolTableRecord
100
AcDbRegAppTableRecord
2
ACAD
70
0
0
ENDTAB
0
TABLE
2
DIMSTYLE
5
A
100
AcDbSymbolTable
70
1
0
ENDTAB
0
TABLE
2
BLOCK_RECORD
5
1
100
AcDbSymbolTable
70
1
0
BLOCK_RECORD
5
1F
100
AcDbSymbolTableRecord
100
AcDbBlockTableRecord
2
*MODEL_SPACE
0
BLOCK_RECORD
5
1B
100
AcDbSymbolTableRecord
100
AcDbBlockTableRecord
2
*PAPER_SPACE
0
ENDTAB
0
ENDSEC
0
SECTION
2
BLOCKS
0
BLOCK
5
20
100
AcDbEntity
100
AcDbBlockBegin
2
*MODEL_SPACE
0
ENDBLK
5
21
100
AcDbEntity
100
AcDbBlockEnd
0
BLOCK
5
1C
100
AcDbEntity
100
AcDbBlockBegin
2
*PAPER_SPACE
0
ENDBLK
5
1D
100
AcDbEntity
100
AcDbBlockEnd
0
ENDSEC
0
SECTION
2
ENTITIES
0
LWPOLYLINE
5
100
100
AcDbEntity
8
0
100
AcDbPolyline
90
32
70
1
43
0.0
10
5.620757768660587
20
14.929842121988354
42
0.066965626340747458
10
1.6207577686605921
20
14.929842121988365
10
1.6207577686605756
20
14.172724434192315
42
0.1266117633527416
10
-4.9415636385837649
20
11.454521906660453
10
-5.4769266897806528
20
11.989884957857299
42
0.066965626340746917
10
-8.3053538145268391
20
9.1614578331111307
10
-7.7699907633299876
20
8.6260947819142579
42
0.12661176335274271
10
-10.48819329086192
20
2.0637733746698919
10
-11.245310978657979
20
2.0637733746698812
42
0.06696562634074682
10
-11.245310978657974
20
-1.9362266253301068
10
-10.488193290861927
20
-1.9362266253301041
42
0.12661176335274296
10
-7.7699907633300205
20
-8.4985480325745044
10
-8.3053538145268764
20
-9.0339110837713701
42
0.066965626340747139
10
-5.4769266897806901
20
-11.862338208517556
10
-4.9415636385838333
20
-11.3269751573207
42
0.12661176335274277
10
1.6207577686605634
20
-14.045177684852616
10
1.6207577686605776
20
-14.802295372648659
42
0.066965626340695444
10
5.6207577686575068
20
-14.802295372649061
10
5.6207577686584855
20
-14.045177684868111
42
0.12661176335281832
10
12.183079175904945
20
-11.326975157320664
10
12.718442227101793
20
-11.862338208517523
42
0.066965626340747236
10
15.546869351847983
20
-9.0339110837713328
10
15.011506300651124
20
-8.4985480325744476
42
0.1266117633527416
10
17.729708828183
20
-1.9362266253301219
10
18.486826515979047
20
-1.9362266253301044
42
0.066965626340746917
10
18.486826515979033
20
2.0637733746698754
10
17.729708828182996
20
2.0637733746698812
42
0.12661176335274149
10
15.011506300651096
20
8.6260947819141993
10
15.546869351847976
20
9.1614578331110739
42
0.066965626340747236
10
12.718442227101775
20
11.989884957857251
10
12.183079175904904
20
11.454521906660409
42
0.12661176335274144
10
5.620757768660587
20
14.172724434192308
0
LWPOLYLINE
5
101
100
AcDbEntity
8
0
100
AcDbPolyline
90
32
70
1
43
0.0
10
11.420991218281669
20
-4.9080329502180469
10
11.963174561304569
20
-5.4502162932394826
42
-0.10102051443322473
10
9.1347474365698726
20
-8.2786434179741768
10
8.5925640935256489
20
-7.7364600749155361
42
-0.087603948344555371
10
5.6207577686422532
20
-8.9674225594283907
10
5.6207577686524406
20
-9.7341855964645099
42
-0.10102051443322563
10
1.6207577686686636
20
-9.734185596464517
10
1.620757768678861
20
-8.9674225594283801
42
-0.087603948344555371
10
-1.3510485562045345
20
-7.7364600749155397
10
-1.8932318992487831
20
-8.2786434179741892
42
-0.1010205144332255
10
-4.7216590239835012
20
-5.4502162932394764
10
-4.1794756809248481
20
-4.9080329501952464
42
-0.087603948344556037
10
-5.4104381654377018
20
-1.9362266253118288
10
-6.1772012024738387
20
-1.9362266253220173
42
-0.10102051443322473
10
-6.1772012024738387
20
2.0637733746617255
10
-5.4104381654377374
20
2.0637733746515368
42
-0.08760394834455705
10
-4.1794756809248579
20
5.0355796995349946
10
-4.7216590239834888
20
5.5777630425792051
42
-0.10102051443322484
10
-1.8932318992487835
20
8.4061901673138966
10
-1.35104855620459
20
7.8640068242553056
42
-0.087603948344556037
10
1.6207577686788532
20
9.0949693087681656
10
1.6207577686686676
20
9.8617323458042243
42
-0.1010205144332255
10
5.6207577686524415
20
9.8617323458042172
10
5.6207577686422479
20
9.094969308768178
42
-0.087603948344556037
10
8.5925640935256915
20
7.8640068242553038
10
9.1347474365698638
20
8.4061901673138859
42
-0.10102051443322484
10
11.963174561304564
20
5.5777630425791891
10
11.420991218245977
20
5.0355796995350124
42
-0.087603948344557162
10
12.651953702758858
20
2.0637733746515314
10
13.418716739794906
20
2.0637733746617219
42
-0.1010205144332245
10
13.418716739794906
20
-1.936226625322012
10
12.651953702800176
20
-1.9362266253209799
42
-0.087603948344556815
0
ENDSEC
0
SECTION
2
OBJECTS
0
DICTIONARY
5
C
100
AcDbDictionary
3
ACAD_GROUP
350
D
3
ACAD_MLINESTYLE
350
17
0
DICTIONARY
5
D
100
AcDbDictionary
0
DICTIONARY
5
1A
330
C
100
AcDbDictionary
0
DICTIONARY
5
17
100
AcDbDictionary
0
ENDSEC
0
EOF
